<svg xmlns="http://www.w3.org/2000/svg" width="50" height="50" viewBox="0 0 50 50"><path d="M18.9,13.4a4.1,4.1,0,0,1,1-1.3A7.3,7.3,0,0,1,30.4,12a5.3,5.3,0,0,1,1.2,1.4" fill="none" stroke="#0b0b0b" stroke-linecap="round" stroke-linejoin="round"/><path d="M12.5,6.3l.7-.7A16.8,16.8,0,0,1,37,5.3l.8.9" fill="none" stroke="#0b0b0b" stroke-linecap="round" stroke-linejoin="round"/><path d="M15.5,9.9a5.2,5.2,0,0,1,1-1.1,12.1,12.1,0,0,1,17.3-.2l1,1.1" fill="none" stroke="#0b0b0b" stroke-linecap="round" stroke-linejoin="round"/><path d="M41.1,32.3l-3.6-7.8A7.9,7.9,0,0,0,30.2,20H19.8a7.9,7.9,0,0,0-7.3,4.5L8.9,32.3A106.1,106.1,0,0,0,25,33.5,106.1,106.1,0,0,0,41.1,32.3Z" fill="#3f7dff"/><path d="M41.1,32.3A106.1,106.1,0,0,1,25,33.5,106.1,106.1,0,0,1,8.9,32.3l-.4.9a9.8,9.8,0,0,0-.9,4.1v7.8H42.4V37.3a9.8,9.8,0,0,0-.9-4.1Z" fill="#00c5a1"/><path d="M12.6,45.1V49a1,1,0,0,1-1,1h-3a1,1,0,0,1-1-1V45.1" fill="#9e62ff"/><path d="M42.4,45.1V49a1,1,0,0,1-1,1h-3a1,1,0,0,1-1-1V45.1" fill="#9e62ff"/><path d="M44.8,31.7A105.7,105.7,0,0,1,25,33.5,105.7,105.7,0,0,1,5.2,31.7" fill="none" stroke="#0b0b0b" stroke-linecap="round" stroke-linejoin="round"/><line x1="20.5" y1="39.6" x2="29.5" y2="39.6" fill="none" stroke="#0b0b0b" stroke-linecap="round" stroke-linejoin="round"/><line x1="11.3" y1="39.6" x2="13.9" y2="39.6" fill="none" stroke="#0b0b0b" stroke-linecap="round" stroke-linejoin="round"/><line x1="36.1" y1="39.6" x2="38.7" y2="39.6" fill="none" stroke="#0b0b0b" stroke-linecap="round" stroke-linejoin="round"/></svg>