<?xml version="1.0" encoding="UTF-8"?>
<svg width="31px" height="32px" viewBox="0 0 31 32" version="1.1" xmlns="http://www.w3.org/2000/svg" xmlns:xlink="http://www.w3.org/1999/xlink">
    <title>icon-facebook</title>
    <g id="Symbols" stroke="none" stroke-width="1" fill="none" fill-rule="evenodd">
        <g id="Footer-/-New-Desktop" transform="translate(-1110.000000, -380.000000)" fill="#0B0B0B">
            <g id="Group-9" transform="translate(1110.000000, 160.000000)">
                <path d="M31.0022,236.148244 C31.0022,227.587244 24.0632,220.648244 15.5022,220.648244 C6.9412,220.648244 0.0022,227.587244 0.0022,236.148244 C0.0022,244.709244 6.9412,251.648244 15.5022,251.648244 C15.5932,251.648244 15.6842,251.648244 15.7742,251.642244 L15.7742,239.581244 L12.4442,239.581244 L12.4442,235.700244 L15.7742,235.700244 L15.7742,232.842244 C15.7742,229.530244 17.7972,227.726244 20.7512,227.726244 C22.1682,227.726244 23.3852,227.829244 23.7362,227.877244 L23.7362,231.341244 L21.7022,231.341244 C20.0982,231.341244 19.7832,232.104244 19.7832,233.224244 L19.7832,235.694244 L23.6272,235.694244 L23.1252,239.575244 L19.7832,239.575244 L19.7832,251.049244 C26.2612,249.190244 31.0022,243.226244 31.0022,236.148244" id="icon-facebook"></path>
            </g>
        </g>
    </g>
</svg>