<?xml version="1.0" encoding="UTF-8"?>
<svg width="31px" height="32px" viewBox="0 0 31 32" version="1.1" xmlns="http://www.w3.org/2000/svg" xmlns:xlink="http://www.w3.org/1999/xlink">
    <title>icon-linkedin</title>
    <g id="Symbols" stroke="none" stroke-width="1" fill="none" fill-rule="evenodd">
        <g id="Footer-/-New-Desktop" transform="translate(-1208.000000, -380.000000)" fill="#0B0B0B">
            <g id="Group-9" transform="translate(1110.000000, 160.000000)">
                <path d="M113.7081,220.648244 C105.4011,220.648244 98.6641,227.589244 98.6641,236.148244 C98.6641,244.707244 105.4011,251.648244 113.7081,251.648244 C122.0151,251.648244 128.7521,244.707244 128.7521,236.148244 C128.7521,227.589244 122.0151,220.648244 113.7081,220.648244 L113.7081,220.648244 Z M105.6721,244.080244 L109.3361,244.080244 L109.3361,232.723244 L105.6721,232.723244 L105.6721,244.080244 Z M107.5051,231.172244 L107.4811,231.172244 C106.2511,231.172244 105.4561,230.300244 105.4561,229.210244 C105.4561,228.096244 106.2751,227.248244 107.5291,227.248244 C108.7821,227.248244 109.5541,228.096244 109.5771,229.210244 C109.5771,230.300244 108.7821,231.172244 107.5051,231.172244 L107.5051,231.172244 Z M122.5481,244.080244 L118.8841,244.080244 L118.8841,238.004244 C118.8841,236.477244 118.3541,235.436244 117.0281,235.436244 C116.0161,235.436244 115.4131,236.138244 115.1481,236.816244 C115.0511,237.059244 115.0281,237.398244 115.0281,237.737244 L115.0281,244.080244 L111.3641,244.080244 C111.3641,244.080244 111.4121,233.788244 111.3641,232.723244 L115.0281,232.723244 L115.0281,234.331244 C115.5151,233.557244 116.3861,232.456244 118.3301,232.456244 C120.7401,232.456244 122.5481,234.079244 122.5481,237.568244 L122.5481,244.080244 Z" id="icon-linkedin"></path>
            </g>
        </g>
    </g>
</svg>