<?xml version="1.0" encoding="UTF-8"?>
<svg width="32px" height="32px" viewBox="0 0 32 32" version="1.1" xmlns="http://www.w3.org/2000/svg" xmlns:xlink="http://www.w3.org/1999/xlink">
    <title>icon-twitter</title>
    <g id="Symbols" stroke="none" stroke-width="1" fill="none" fill-rule="evenodd">
        <g id="Footer-/-New-Desktop" transform="translate(-1159.000000, -380.000000)" fill="#0B0B0B">
            <g id="Group-9" transform="translate(1110.000000, 160.000000)">
                <path d="M64.6051,220.648244 C56.0461,220.648244 49.1051,227.589244 49.1051,236.148244 C49.1051,244.707244 56.0461,251.648244 64.6051,251.648244 C73.1641,251.648244 80.1051,244.707244 80.1051,236.148244 C80.1051,227.589244 73.1641,220.648244 64.6051,220.648244 M71.6821,232.733244 C71.6891,232.886244 71.6921,233.039244 71.6921,233.193244 C71.6921,237.894244 68.1141,243.315244 61.5701,243.315244 L61.5701,243.315244 L61.5701,243.315244 C59.5611,243.315244 57.6911,242.727244 56.1171,241.717244 C56.3951,241.750244 56.6781,241.767244 56.9651,241.767244 C58.6321,241.767244 60.1661,241.198244 61.3841,240.244244 C59.8271,240.215244 58.5131,239.186244 58.0601,237.773244 C58.2771,237.814244 58.5001,237.837244 58.7291,237.837244 C59.0541,237.837244 59.3681,237.793244 59.6671,237.712244 C58.0391,237.386244 56.8131,235.947244 56.8131,234.224244 C56.8131,234.208244 56.8131,234.194244 56.8131,234.179244 C57.2931,234.445244 57.8411,234.606244 58.4251,234.624244 C57.4691,233.986244 56.8421,232.897244 56.8421,231.662244 C56.8421,231.010244 57.0181,230.400244 57.3231,229.874244 C59.0781,232.027244 61.7001,233.443244 64.6571,233.591244 C64.5961,233.331244 64.5641,233.059244 64.5641,232.780244 C64.5641,230.816244 66.1571,229.223244 68.1221,229.223244 C69.1461,229.223244 70.0701,229.655244 70.7191,230.347244 C71.5301,230.187244 72.2911,229.891244 72.9781,229.483244 C72.7121,230.314244 72.1481,231.010244 71.4141,231.451244 C72.1331,231.365244 72.8191,231.174244 73.4571,230.891244 C72.9811,231.604244 72.3771,232.231244 71.6821,232.733244" id="icon-twitter"></path>
            </g>
        </g>
    </g>
</svg>