<?xml version="1.0" encoding="UTF-8"?>
<svg width="31px" height="32px" viewBox="0 0 31 32" version="1.1" xmlns="http://www.w3.org/2000/svg" xmlns:xlink="http://www.w3.org/1999/xlink">
    <title>icon-instagram</title>
    <g id="Symbols" stroke="none" stroke-width="1" fill="none" fill-rule="evenodd">
        <g id="Footer-/-New-Desktop" transform="translate(-1257.000000, -380.000000)" fill="#0B0B0B">
            <g id="Group-9" transform="translate(1110.000000, 160.000000)">
                <g id="icon-instagram" transform="translate(147.767100, 220.708444)">
                    <path d="M19.7085,11.9954 C19.0925,11.9954 18.5925,11.4954 18.5925,10.8794 C18.5925,10.2634 19.0925,9.7644 19.7085,9.7644 C20.3245,9.7644 20.8235,10.2634 20.8235,10.8794 C20.8235,11.4954 20.3245,11.9954 19.7085,11.9954 M15.0435,20.1554 C12.4775,20.1554 10.3885,18.0674 10.3885,15.5004 C10.3885,12.9334 12.4775,10.8444 15.0435,10.8444 C17.6105,10.8444 19.6995,12.9334 19.6995,15.5004 C19.6995,18.0674 17.6105,20.1554 15.0435,20.1554 M18.6815,8.3114 L11.4065,8.3114 C9.4445,8.3114 7.8545,9.9014 7.8545,11.8624 L7.8545,19.1384 C7.8545,21.0994 9.4445,22.6894 11.4065,22.6894 L18.6815,22.6894 C20.6435,22.6894 22.2335,21.0994 22.2335,19.1384 L22.2335,11.8624 C22.2335,9.9014 20.6435,8.3114 18.6815,8.3114" id="Fill-10"></path>
                    <path d="M15.044,12.6557 C13.473,12.6557 12.199,13.9297 12.199,15.5007 C12.199,17.0717 13.473,18.3447 15.044,18.3447 C16.615,18.3447 17.889,17.0717 17.889,15.5007 C17.889,13.9297 16.615,12.6557 15.044,12.6557" id="Fill-12"></path>
                    <path d="M24.044,19.138 C24.044,22.095 21.638,24.5 18.682,24.5 L11.406,24.5 C8.45,24.5 6.044,22.095 6.044,19.138 L6.044,11.863 C6.044,8.906 8.45,6.5 11.406,6.5 L18.682,6.5 C21.638,6.5 24.044,8.906 24.044,11.863 L24.044,19.138 Z M15.044,0 C6.737,0 0,6.941 0,15.5 C0,24.059 6.737,31 15.044,31 C23.351,31 30.088,24.059 30.088,15.5 C30.088,6.941 23.351,0 15.044,0 L15.044,0 Z" id="Fill-14"></path>
                </g>
            </g>
        </g>
    </g>
</svg>